<?xml version="1.0" encoding="UTF-8"?>
<svg xmlns="http://www.w3.org/2000/svg" xmlns:xlink="http://www.w3.org/1999/xlink" viewBox="0 0 309.45 309.45">
  <defs>
    <style>
      .cls-1 {
        fill: url(#linear-gradient-2);
        opacity: .7;
      }

      .cls-2 {
        letter-spacing: -.01em;
      }

      .cls-3 {
        isolation: isolate;
      }

      .cls-4 {
        fill: #ffcd24;
      }

      .cls-5 {
        font-family: CooperHewitt-Bold, 'Cooper Hewitt';
        font-size: 62.71px;
        font-weight: 700;
      }

      .cls-6 {
        fill: url(#linear-gradient-3);
      }

      .cls-7 {
        fill: url(#radial-gradient);
        mix-blend-mode: soft-light;
      }

      .cls-8 {
        fill: url(#linear-gradient);
      }

      .cls-9 {
        letter-spacing: 0em;
      }
    </style>
    <radialGradient id="radial-gradient" cx="154.72" cy="154.73" fx="154.72" fy="154.73" r="154.72" gradientUnits="userSpaceOnUse">
      <stop offset="0" stop-color="#fff"/>
      <stop offset="1" stop-color="#201600"/>
    </radialGradient>
    <linearGradient id="linear-gradient" x1="154.73" y1="5.26" x2="154.73" y2="240.09" gradientUnits="userSpaceOnUse">
      <stop offset="0" stop-color="#fff" stop-opacity=".7"/>
      <stop offset=".11" stop-color="#fff" stop-opacity=".55"/>
      <stop offset=".25" stop-color="#fff" stop-opacity=".39"/>
      <stop offset=".4" stop-color="#fff" stop-opacity=".25"/>
      <stop offset=".55" stop-color="#fff" stop-opacity=".14"/>
      <stop offset=".7" stop-color="#fff" stop-opacity=".06"/>
      <stop offset=".85" stop-color="#fff" stop-opacity=".02"/>
      <stop offset="1" stop-color="#fff" stop-opacity="0"/>
    </linearGradient>
    <linearGradient id="linear-gradient-2" x1="154.84" y1="161.31" x2="154.84" y2="0" gradientUnits="userSpaceOnUse">
      <stop offset="0" stop-color="#fff" stop-opacity=".3"/>
      <stop offset="1" stop-color="#fff" stop-opacity="0"/>
    </linearGradient>
    <linearGradient id="linear-gradient-3" x1="155.04" y1="270.86" x2="155.04" y2="216.76" gradientUnits="userSpaceOnUse">
      <stop offset="0" stop-color="#fff" stop-opacity=".3"/>
      <stop offset=".09" stop-color="#fff" stop-opacity=".25"/>
      <stop offset=".32" stop-color="#fff" stop-opacity=".14"/>
      <stop offset=".54" stop-color="#fff" stop-opacity=".06"/>
      <stop offset=".77" stop-color="#fff" stop-opacity=".02"/>
      <stop offset="1" stop-color="#fff" stop-opacity="0"/>
    </linearGradient>
  </defs>
  <g class="cls-3">
    <g id="Layer_2" data-name="Layer 2">
      <g id="objects">
        <g>
          <g>
            <path class="cls-4" d="m309.45,154.73c0,85.45-69.27,154.72-154.72,154.72S0,240.18,0,154.73c0-14.46,1.98-28.46,5.7-41.74C23.91,47.81,83.73,0,154.73,0s131.29,48.2,149.24,113.78c3.57,13.04,5.48,26.77,5.48,40.95Z"/>
            <path class="cls-7" d="m309.45,154.73c0,85.45-69.27,154.72-154.72,154.72S0,240.18,0,154.73c0-14.46,1.98-28.46,5.7-41.74C23.91,47.81,83.73,0,154.73,0s131.29,48.2,149.24,113.78c3.57,13.04,5.48,26.77,5.48,40.95Z"/>
          </g>
          <g>
            <circle class="cls-4" cx="154.73" cy="154.73" r="128.46" transform="translate(-20.75 285.45) rotate(-81.68)"/>
            <path d="m154.73,290.19c-74.7,0-135.46-60.77-135.46-135.46S80.03,19.26,154.73,19.26s135.46,60.77,135.46,135.46-60.77,135.46-135.46,135.46Zm0-256.92c-66.97,0-121.46,54.49-121.46,121.46s54.48,121.46,121.46,121.46,121.46-54.49,121.46-121.46-54.49-121.46-121.46-121.46Z"/>
          </g>
          <ellipse class="cls-8" cx="154.73" cy="122.68" rx="129.69" ry="117.42"/>
          <path class="cls-1" d="m303.97,113.78c-.43.32-.86.63-1.29.95-39.94,29.08-91.3,46.58-147.32,46.58S47.97,143.81,8.03,114.72c-.78-.57-1.56-1.14-2.33-1.73C23.91,47.81,83.73,0,154.73,0s131.29,48.2,149.24,113.78Z"/>
          <text class="cls-5" transform="translate(68.89 184.13)"><tspan x="0" y="0">OO</tspan><tspan class="cls-2" x="84.4" y="0">P</tspan><tspan class="cls-9" x="121.84" y="0">S!</tspan></text>
          <path class="cls-6" d="m155.12,262.11c-35.67,0-68.44-16.98-94.22-45.35,1.68,2.27,3.39,4.49,5.14,6.64,24.14,29.64,55.19,47.46,89.06,47.46s64.91-17.82,89.05-47.45c1.71-2.1,3.38-4.25,5.02-6.47-25.75,28.25-58.46,45.17-94.06,45.17Z"/>
        </g>
      </g>
    </g>
  </g>
</svg>