<svg width="46" height="53" viewBox="0 0 46 53" fill="none" xmlns="http://www.w3.org/2000/svg">
<g clip-path="url(#clip0_182_1628)">
<path d="M16.38 17.1078L13.0055 20.0849L18.7016 26.5414L22.0761 23.5643L16.38 17.1078Z" fill="#EA4224"/>
<path d="M22.1999 52.53L21.1999 51.99C20.5399 51.63 4.96993 43.05 0.949927 27.59C-1.28007 19.01 0.509985 10.07 6.25999 1.03998L6.9199 0.039978H29.5199V4.53998H9.40989C4.86989 12.11 3.48991 19.54 5.30991 26.54C8.30991 38.01 18.9799 45.43 22.3099 47.54C26.3711 45.2861 30.0777 42.4456 33.3099 39.11C39.5299 32.56 41.9199 25.48 40.4599 18.02L22.4599 30.88L18.6699 26.59L22.0499 23.59L23.1399 24.83L42.9699 10.67L43.9699 13.57C52.0299 37.96 23.5599 51.99 23.2699 52.12L22.1999 52.53Z" fill="white"/>
<path d="M40.08 0H29.5V4.5H40.08V0Z" fill="#82CDE5"/>
</g>
<defs>
<clipPath id="clip0_182_1628">
<rect width="45.35" height="52.54" fill="white"/>
</clipPath>
</defs>
</svg>
