<svg width="170" height="170" viewBox="0 0 170 170" fill="none" xmlns="http://www.w3.org/2000/svg">
<path d="M151 124.081H19V150.352H151V124.081Z" fill="#002B4F"/>
<path d="M151 97.8114H19V124.082H151V97.8114Z" fill="#0087CD"/>
<path d="M151 71.5388H19V97.8091H151V71.5388Z" fill="#43C5E4"/>
<path d="M151 45.27H19V71.5403H151V45.27Z" fill="#ECF3F3"/>
<path d="M151 19H19V45.2703H151V19Z" fill="#ED3024"/>
<path d="M24.7173 23.9503H30.3326C33.9761 23.9503 36.4236 26.5824 36.4236 30.6174C36.4236 32.9363 35.6138 34.7958 34.1413 35.9146C33.1106 36.6882 31.786 37.111 30.1299 37.111H24.7173V23.9503ZM29.888 34.3684C32.0224 34.3684 33.1261 33.0249 33.1261 30.6138C33.1261 28.22 31.9667 26.6738 29.9245 26.6738H27.9746V34.3684H29.888Z" fill="white"/>
<path d="M37.083 32.418C37.083 29.5868 39.1069 27.4295 42.1241 27.4295C45.1605 27.4295 47.1451 29.5831 47.1451 32.418C47.1451 35.2529 45.1586 37.4065 42.1241 37.4065C39.1069 37.4065 37.083 35.2529 37.083 32.418ZM44.1124 32.418C44.1124 30.7056 43.4131 29.5466 42.104 29.5466C40.7949 29.5466 40.1166 30.7056 40.1166 32.418C40.1166 34.1305 40.7977 35.2712 42.104 35.2712C43.4104 35.2712 44.1115 34.1295 44.1115 32.418H44.1124Z" fill="white"/>
<path d="M50.2539 27.6871H53.3085L54.341 31.5897C54.5437 32.3441 54.7646 33.4117 54.7646 33.4117H54.8011C54.8011 33.4117 55.0221 32.3258 55.2247 31.534L56.218 27.6871H58.7577L59.7875 31.534C59.9901 32.3441 60.2293 33.43 60.2293 33.43H60.2658C60.2658 33.43 60.505 32.3441 60.7077 31.5897L61.7566 27.6871H64.719L61.8269 37.1115H59.0124L57.9087 32.8409C57.706 32.1048 57.5034 31.1476 57.5034 31.1476H57.4668C57.4668 31.1476 57.2459 32.1048 57.0432 32.8409L55.9213 37.1115H53.1424L50.2539 27.6871Z" fill="white"/>
<path d="M65.4136 23.9503H68.4125V28.8438H68.4682C69.1492 27.9414 69.9581 27.4081 71.2644 27.4081C73.3258 27.4081 74.54 28.8803 74.54 30.9791V37.1083H71.541V31.5892C71.541 30.5946 71.0444 29.9142 70.0685 29.9142C69.0753 29.9142 68.4125 30.7425 68.4125 31.9015V37.1074H65.4136V23.9503Z" fill="white"/>
<path d="M75.46 34.4793C75.46 32.3997 77.116 31.7732 79.0669 31.5157C80.8334 31.2946 81.4587 31.1111 81.4587 30.4663C81.4587 29.8589 81.0726 29.4543 80.1706 29.4543C79.2139 29.4543 78.7355 29.8772 78.6433 30.669H75.8854C75.9593 28.9201 77.3022 27.4295 80.1542 27.4295C81.571 27.4295 82.5277 27.6871 83.2088 28.2022C84.0176 28.7913 84.4047 29.7119 84.4047 30.89V35.6392C84.4047 36.3936 84.4777 36.8174 84.7352 36.9827V37.1115H81.8266C81.6796 36.9096 81.5874 36.5407 81.5135 36.0621H81.477C80.9292 36.8539 80.0966 37.3508 78.6798 37.3508C76.8038 37.3508 75.46 36.3388 75.46 34.4793ZM81.5317 33.7432V32.6198C81.1456 32.8226 80.5942 32.9696 79.9862 33.1176C78.8277 33.3752 78.3493 33.6656 78.3493 34.3871C78.3493 35.1424 78.8971 35.4365 79.6365 35.4365C80.7594 35.4365 81.5317 34.7552 81.5317 33.7432Z" fill="white"/>
<path d="M86.4055 34.6248V29.5633H85.1548V27.6856H86.4055V24.7036H89.3268V27.6856H91.0376V29.5633H89.3314V33.981C89.3314 34.7171 89.7358 34.9016 90.3794 34.9016C90.6377 34.9016 90.9317 34.8833 91.0422 34.8833V37.0752C90.7847 37.1492 90.2142 37.2223 89.4044 37.2223C87.6598 37.2205 86.4055 36.6496 86.4055 34.6248Z" fill="white"/>
<path d="M92.1822 28.3496C92.8998 28.1286 93.4886 27.502 93.4886 26.6929H92.2379V23.9529H94.9767V26.3641C94.9767 27.3212 94.6635 28.0025 94.1852 28.4994C93.6703 29.0327 92.9162 29.346 92.1768 29.42L92.1822 28.3496Z" fill="white"/>
<path d="M94.2822 34.0551H97.1123C97.2218 34.9931 97.8481 35.4534 98.8413 35.4534C99.7433 35.4534 100.313 35.1228 100.313 34.5145C100.313 33.6679 99.1727 33.5766 97.9211 33.3555C96.2842 33.0815 94.536 32.6377 94.536 30.4284C94.536 28.4401 96.3755 27.4099 98.6021 27.4099C101.271 27.4099 102.706 28.5689 102.853 30.4284H100.093C99.9825 29.5818 99.4119 29.3242 98.5839 29.3242C97.8481 29.3242 97.2775 29.5982 97.2775 30.1891C97.2775 30.8522 98.3447 30.9435 99.5406 31.1645C101.197 31.4385 103.147 31.8641 103.147 34.2752C103.147 36.3375 101.321 37.4051 98.8559 37.4051C96.1035 37.4051 94.3735 36.1347 94.2822 34.0551Z" fill="white"/>
<path d="M107.711 27.6859H110.583V29.1581H110.637C111.3 28.0357 112.072 27.5388 113.214 27.5388C113.487 27.5388 113.67 27.5571 113.802 27.6119V30.1892H113.728C111.889 29.9317 110.716 30.8331 110.716 32.8771V37.1103H107.716L107.711 27.6859Z" fill="white"/>
<path d="M114.762 23.9503H117.762V26.3779H114.762V23.9503ZM114.762 27.6866H117.762V37.111H114.762V27.6866Z" fill="white"/>
<path d="M118.975 37.3311H121.882C122.048 37.828 122.545 38.2517 123.538 38.2517C124.808 38.2517 125.341 37.5887 125.341 36.448V35.51H125.268C124.716 36.1356 123.998 36.5959 122.857 36.5959C120.742 36.5959 118.772 35.0132 118.772 32.1207C118.772 29.3598 120.392 27.409 122.728 27.409C123.98 27.409 124.828 27.9058 125.376 28.6976H125.412V27.6857H128.287V36.1904C128.287 37.6069 127.79 38.6381 127.036 39.3194C126.208 40.0555 124.975 40.3688 123.576 40.3688C120.984 40.3688 119.268 39.3011 118.975 37.3311ZM125.47 32.0111C125.47 30.7416 124.808 29.674 123.552 29.674C122.431 29.674 121.695 30.5937 121.695 32.0303C121.695 33.4468 122.431 34.3674 123.552 34.3674C124.862 34.3674 125.469 33.3372 125.469 32.0111H125.47Z" fill="white"/>
<path d="M129.72 23.9503H132.719V28.8438H132.773C133.454 27.9414 134.264 27.4081 135.571 27.4081C137.631 27.4081 138.846 28.8803 138.846 30.9791V37.1083H135.846V31.5892C135.846 30.5946 135.35 29.9142 134.375 29.9142C133.381 29.9142 132.719 30.7425 132.719 31.9015V37.1074H129.72V23.9503Z" fill="white"/>
<path d="M140.759 34.6248V29.5633H139.509V27.6856H140.759V24.7036H143.685V27.6856H145.396V29.5633H143.685V33.981C143.685 34.7171 144.09 34.9016 144.734 34.9016C144.992 34.9016 145.282 34.8833 145.396 34.8833V37.0752C145.139 37.1492 144.568 37.2223 143.758 37.2223C142.011 37.2205 140.759 36.6496 140.759 34.6248Z" fill="white"/>
<path d="M24.7173 50.5188H30.3326C33.9761 50.5188 36.4236 53.1509 36.4236 57.1859C36.4236 59.5057 35.6138 61.3652 34.1413 62.4877C33.1106 63.2612 31.786 63.6841 30.1299 63.6841H24.7173V50.5188ZM29.888 60.9378C32.0224 60.9378 33.1261 59.5943 33.1261 57.1823C33.1261 54.7894 31.9667 53.2432 29.9245 53.2432H27.9746V60.9378H29.888Z" fill="#ED3024"/>
<path d="M37.083 58.9873C37.083 56.156 39.1069 53.9988 42.1241 53.9988C45.1605 53.9988 47.1451 56.1524 47.1451 58.9873C47.1451 61.8221 45.1586 63.9757 42.1241 63.9757C39.1069 63.9757 37.083 61.8212 37.083 58.9873ZM44.1124 58.9873C44.1124 57.2748 43.4131 56.1149 42.104 56.1149C40.7949 56.1149 40.1166 57.2748 40.1166 58.9873C40.1166 60.6997 40.7995 61.8404 42.1104 61.8404C43.4214 61.8404 44.1115 60.6988 44.1115 58.9873H44.1124Z" fill="#ED3024"/>
<path d="M50.2539 54.2563H53.3085L54.341 58.1598C54.5437 58.9142 54.7646 59.9864 54.7646 59.9864H54.8011C54.8011 59.9864 55.0221 58.9005 55.2247 58.1087L56.218 54.2618H58.7577L59.7875 58.1087C59.9901 58.9188 60.2293 60.0047 60.2293 60.0047H60.2658C60.2658 60.0047 60.505 58.9188 60.7077 58.1644L61.7566 54.2618H64.719L61.8269 63.6807H59.0124L57.9087 59.4101C57.706 58.674 57.5034 57.7169 57.5034 57.7169H57.4668C57.4668 57.7169 57.2459 58.674 57.0432 59.4101L55.9213 63.6807H53.1424L50.2539 54.2563Z" fill="#ED3024"/>
<path d="M65.4136 50.5188H68.4125V55.4196H68.4682C69.1492 54.5173 69.9581 53.983 71.2644 53.983C73.3258 53.983 74.54 55.4561 74.54 57.554V63.6841H71.541V58.1595C71.541 57.1649 71.0444 56.4845 70.0685 56.4845C69.0753 56.4845 68.4125 57.312 68.4125 58.4719V63.6777H65.4136V50.5188Z" fill="#ED3024"/>
<path d="M75.46 61.0486C75.46 58.9681 77.116 58.3425 79.0669 58.0849C80.8334 57.8639 81.4587 57.6803 81.4587 57.0355C81.4587 56.4282 81.0726 56.0236 80.1706 56.0236C79.2139 56.0236 78.7355 56.4464 78.6433 57.2383H75.8854C75.9593 55.4893 77.3022 53.9988 80.1542 53.9988C81.571 53.9988 82.5277 54.2563 83.2088 54.7714C84.0176 55.3605 84.4047 56.2811 84.4047 57.4593V62.2085C84.4047 62.9629 84.4777 63.3866 84.7352 63.552V63.6807H81.8266C81.6796 63.478 81.5874 63.1099 81.5135 62.6313H81.477C80.9292 63.4232 80.0966 63.92 78.6798 63.92C76.8038 63.92 75.46 62.909 75.46 61.0486ZM81.5317 60.3125V59.1891C81.1456 59.3918 80.5942 59.5389 79.9862 59.6859C78.8277 59.9444 78.3493 60.2339 78.3493 60.9563C78.3493 61.7107 78.8971 62.0057 79.6365 62.0057C80.7594 62.0057 81.5317 61.3244 81.5317 60.3125Z" fill="#ED3024"/>
<path d="M86.4055 61.1941V56.1325H85.1548V54.2548H86.4055V51.2728H89.3268V54.2548H91.0376V56.1325H89.3314V60.5502C89.3314 61.2863 89.7358 61.4699 90.3794 61.4699C90.6377 61.4699 90.9317 61.4516 91.0422 61.4516V63.6435C90.7847 63.7166 90.2142 63.7906 89.4044 63.7906C87.6598 63.7897 86.4055 63.2189 86.4055 61.1941Z" fill="#ED3024"/>
<path d="M92.1822 54.9181C92.8998 54.698 93.4886 54.0715 93.4886 53.2614H92.2379V50.5215H94.9767V52.9335C94.9767 53.8906 94.6635 54.571 94.1852 55.0688C93.6703 55.6022 92.9162 55.9154 92.1768 55.9885L92.1822 54.9181Z" fill="#ED3024"/>
<path d="M94.2822 60.627H97.1123C97.2218 61.5659 97.8481 62.0262 98.8413 62.0262C99.7433 62.0262 100.313 61.6947 100.313 61.0873C100.313 60.2407 99.1727 60.1484 97.9211 59.9274C96.2842 59.6534 94.536 59.2096 94.536 57.0048C94.536 55.0166 96.3755 53.9854 98.6021 53.9854C101.271 53.9854 102.706 55.1453 102.853 57.0048H100.093C99.9825 56.1582 99.4119 55.9006 98.5839 55.9006C97.8481 55.9006 97.2775 56.1746 97.2775 56.7655C97.2775 57.4277 98.3447 57.5199 99.5406 57.741C101.197 58.0149 103.147 58.4405 103.147 60.8517C103.147 62.9139 101.321 63.9816 98.8559 63.9816C96.1035 63.977 94.3735 62.7066 94.2822 60.627Z" fill="#ED3024"/>
<path d="M107.711 54.2551H110.583V55.7274H110.637C111.3 54.6049 112.072 54.1081 113.214 54.1081C113.487 54.1081 113.67 54.1263 113.802 54.1811V56.7585H113.728C111.889 56.5009 110.716 57.4024 110.716 59.4454V63.6795H107.716L107.711 54.2551Z" fill="#ED3024"/>
<path d="M114.762 50.5188H117.762V52.9537H114.762V50.5188ZM114.762 54.256H117.762V63.6804H114.762V54.256Z" fill="#ED3024"/>
<path d="M118.975 63.9007H121.882C122.048 64.3975 122.545 64.8213 123.538 64.8213C124.808 64.8213 125.341 64.1582 125.341 63.0166V62.0786H125.268C124.716 62.7043 123.998 63.1646 122.857 63.1646C120.742 63.1646 118.772 61.5809 118.772 58.6894C118.772 55.9284 120.392 53.9767 122.728 53.9767C123.98 53.9767 124.828 54.4745 125.376 55.2654H125.412V54.2553H128.287V62.7591C128.287 64.1765 127.79 65.2076 127.036 65.889C126.208 66.6251 124.975 66.9374 123.576 66.9374C120.984 66.9374 119.268 65.8698 118.975 63.9007ZM125.47 58.5807C125.47 57.3103 124.808 56.2426 123.552 56.2426C122.431 56.2426 121.695 57.1632 121.695 58.599C121.695 60.0164 122.431 60.937 123.552 60.937C124.862 60.937 125.469 59.9059 125.469 58.5807H125.47Z" fill="#ED3024"/>
<path d="M129.72 50.5188H132.719V55.4196H132.773C133.454 54.5173 134.264 53.983 135.571 53.983C137.631 53.983 138.846 55.4561 138.846 57.554V63.6841H135.846V58.1595C135.846 57.1649 135.35 56.4845 134.375 56.4845C133.381 56.4845 132.719 57.312 132.719 58.4719V63.6777H129.72V50.5188Z" fill="#ED3024"/>
<path d="M140.759 61.1941V56.1325H139.509V54.2548H140.759V51.2728H143.685V54.2548H145.396V56.1325H143.685V60.5502C143.685 61.2863 144.09 61.4699 144.734 61.4699C144.992 61.4699 145.282 61.4516 145.396 61.4516V63.6435C145.139 63.7166 144.568 63.7906 143.758 63.7906C142.011 63.7897 140.759 63.2189 140.759 61.1941Z" fill="#ED3024"/>
<path d="M24.7173 77.2072H30.3326C33.9761 77.2072 36.4236 79.8403 36.4236 83.8743C36.4236 86.1932 35.6138 88.0527 34.1413 89.1715C33.1106 89.9451 31.786 90.3679 30.1299 90.3679H24.7173V77.2072ZM29.888 87.6262C32.0224 87.6262 33.1261 86.2827 33.1261 83.8716C33.1261 81.4778 31.9667 79.9316 29.9245 79.9316H27.9746V87.6262H29.888Z" fill="#002B4F"/>
<path d="M37.083 85.6755C37.083 82.8442 39.1069 80.687 42.1241 80.687C45.1605 80.687 47.1451 82.8406 47.1451 85.6755C47.1451 88.5104 45.1586 90.6639 42.1241 90.6639C39.1069 90.6639 37.083 88.5104 37.083 85.6755ZM44.1124 85.6755C44.1124 83.963 43.4131 82.804 42.104 82.804C40.7949 82.804 40.1166 83.963 40.1166 85.6755C40.1166 87.3879 40.7977 88.5286 42.104 88.5286C43.4104 88.5286 44.1115 87.3852 44.1115 85.6755H44.1124Z" fill="#002B4F"/>
<path d="M50.2539 80.9445H53.3085L54.341 84.8471C54.5437 85.6015 54.7646 86.6691 54.7646 86.6691H54.8011C54.8011 86.6691 55.0221 85.5832 55.2247 84.7914L56.218 80.9445H58.7577L59.7875 84.7914C59.9901 85.6015 60.2293 86.6874 60.2293 86.6874H60.2658C60.2658 86.6874 60.505 85.6015 60.7077 84.8471L61.7566 80.9445H64.719L61.8269 90.3689H59.0124L57.9087 86.0983C57.706 85.3622 57.5034 84.4051 57.5034 84.4051H57.4668C57.4668 84.4051 57.2459 85.3622 57.0432 86.0983L55.9213 90.3689H53.1424L50.2539 80.9445Z" fill="#002B4F"/>
<path d="M65.4136 77.2072H68.4125V82.1044H68.4682C69.1492 81.202 69.9581 80.6686 71.2644 80.6686C73.3258 80.6686 74.54 82.1409 74.54 84.2397V90.3689H71.541V84.847C71.541 83.8524 71.0444 83.172 70.0685 83.172C69.0753 83.172 68.4125 84.0004 68.4125 85.1594V90.3652H65.4136V77.2072Z" fill="#002B4F"/>
<path d="M75.46 87.7368C75.46 85.6572 77.116 85.0307 79.0669 84.7731C80.8334 84.5521 81.4587 84.3685 81.4587 83.7237C81.4587 83.1164 81.0726 82.7118 80.1706 82.7118C79.2139 82.7118 78.7355 83.1346 78.6433 83.9265H75.8854C75.9593 82.1775 77.3022 80.687 80.1542 80.687C81.571 80.687 82.5277 80.9445 83.2088 81.4596C84.0176 82.0487 84.4047 82.9693 84.4047 84.1475V88.8967C84.4047 89.6511 84.4777 90.0749 84.7352 90.2402V90.3689H81.8266C81.6796 90.1662 81.5874 89.7981 81.5135 89.3195H81.477C80.9292 90.1114 80.0966 90.6082 78.6798 90.6082C76.8038 90.6082 75.46 89.5963 75.46 87.7368ZM81.5317 87.0007V85.8773C81.1456 86.0801 80.5942 86.2271 79.9862 86.3751C78.8277 86.6326 78.3493 86.923 78.3493 87.6445C78.3493 88.3999 78.8971 88.6939 79.6365 88.6939C80.7594 88.6939 81.5317 88.0126 81.5317 87.0007Z" fill="#002B4F"/>
<path d="M86.4055 87.8854V82.8202H85.1548V80.9461H86.4055V77.9642H89.3268V80.9461H91.0376V82.8202H89.3314V87.2379C89.3314 87.974 89.7358 88.1585 90.3794 88.1585C90.6377 88.1585 90.9317 88.1393 91.0422 88.1393V90.3313C90.7847 90.4043 90.2142 90.4783 89.4044 90.4783C87.6598 90.481 86.4055 89.9102 86.4055 87.8854Z" fill="#002B4F"/>
<path d="M92.1822 81.6061C92.8998 81.386 93.4886 80.7595 93.4886 79.9503H92.2379V77.2104H94.9767V79.6215C94.9767 80.5787 94.6635 81.26 94.1852 81.7568C93.6703 82.2902 92.9162 82.6035 92.1768 82.6765L92.1822 81.6061Z" fill="#002B4F"/>
<path d="M94.2822 87.3137H97.1123C97.2218 88.2525 97.8481 88.7128 98.8413 88.7128C99.7433 88.7128 100.313 88.3813 100.313 87.774C100.313 86.9273 99.1727 86.8351 97.9211 86.615C96.2842 86.341 94.536 85.8971 94.536 83.6924C94.536 81.7041 96.3755 80.6785 98.6021 80.6785C101.271 80.6785 102.706 81.8375 102.853 83.6924H100.093C99.9825 82.8458 99.4119 82.5882 98.5839 82.5882C97.8481 82.5882 97.2775 82.8622 97.2775 83.4531C97.2775 84.1162 98.3447 84.2075 99.5406 84.4285C101.197 84.7025 103.147 85.1281 103.147 87.5392C103.147 89.6015 101.321 90.6691 98.8559 90.6691C96.1035 90.6646 94.3735 89.3951 94.2822 87.3137Z" fill="#002B4F"/>
<path d="M107.711 80.946H110.583V82.4182H110.637C111.3 81.2958 112.072 80.7989 113.214 80.7989C113.487 80.7989 113.67 80.8172 113.802 80.872V83.4493H113.728C111.889 83.1918 110.716 84.0932 110.716 86.1372V90.3704H107.716L107.711 80.946Z" fill="#002B4F"/>
<path d="M114.762 77.2072H117.762V79.6375H114.762V77.2072ZM114.762 80.9445H117.762V90.3689H114.762V80.9445Z" fill="#002B4F"/>
<path d="M118.975 90.589H121.882C122.048 91.0859 122.545 91.5097 123.538 91.5097C124.808 91.5097 125.341 90.8466 125.341 89.7059V88.767H125.268C124.715 89.3935 123.996 89.8502 122.856 89.8502C120.741 89.8502 118.771 88.2674 118.771 85.375C118.771 82.6141 120.391 80.6632 122.727 80.6632C123.979 80.6632 124.827 81.1601 125.375 81.951H125.411V80.9436H128.287V89.4474C128.287 90.8649 127.79 91.896 127.036 92.5773C126.208 93.3134 124.975 93.6267 123.576 93.6267C120.983 93.6267 119.268 92.559 118.975 90.589ZM125.47 85.269C125.47 83.9995 124.808 82.9319 123.552 82.9319C122.43 82.9319 121.695 83.8516 121.695 85.2873C121.695 86.7048 122.43 87.6254 123.552 87.6254C124.862 87.6254 125.469 86.5942 125.469 85.269H125.47Z" fill="#002B4F"/>
<path d="M129.72 77.2072H132.719V82.1044H132.773C133.454 81.202 134.264 80.6686 135.571 80.6686C137.631 80.6686 138.846 82.1409 138.846 84.2397V90.3689H135.846V84.847C135.846 83.8524 135.35 83.172 134.375 83.172C133.381 83.172 132.719 84.0004 132.719 85.1594V90.3652H129.72V77.2072Z" fill="#002B4F"/>
<path d="M140.759 87.8854V82.8202H139.509V80.9461H140.759V77.9642H143.685V80.9461H145.396V82.8202H143.685V87.2379C143.685 87.974 144.09 88.1585 144.734 88.1585C144.992 88.1585 145.282 88.1393 145.396 88.1393V90.3313C145.139 90.4043 144.568 90.4783 143.758 90.4783C142.011 90.481 140.759 89.9102 140.759 87.8854Z" fill="#002B4F"/>
<path d="M24.7173 103.047H30.3326C33.9761 103.047 36.4236 105.68 36.4236 109.714C36.4236 112.034 35.6138 113.893 34.1413 115.011C33.1106 115.785 31.786 116.208 30.1299 116.208H24.7173V103.047ZM29.888 113.466C32.0224 113.466 33.1261 112.122 33.1261 109.71C33.1261 107.317 31.9667 105.771 29.9245 105.771H27.9746V113.466H29.888Z" fill="white"/>
<path d="M37.083 111.515C37.083 108.684 39.1069 106.527 42.1241 106.527C45.1605 106.527 47.1451 108.68 47.1451 111.515C47.1451 114.35 45.1586 116.504 42.1241 116.504C39.1069 116.504 37.083 114.349 37.083 111.515ZM44.1124 111.515C44.1124 109.803 43.4131 108.644 42.104 108.644C40.7949 108.644 40.1166 109.803 40.1166 111.515C40.1166 113.228 40.7977 114.368 42.104 114.368C43.4104 114.368 44.1115 113.227 44.1115 111.515H44.1124Z" fill="white"/>
<path d="M50.2539 106.784H53.3085L54.341 110.687C54.5437 111.441 54.7646 112.509 54.7646 112.509H54.8011C54.8011 112.509 55.0221 111.423 55.2247 110.631L56.218 106.784H58.7577L59.7875 110.631C59.9901 111.441 60.2293 112.527 60.2293 112.527H60.2658C60.2658 112.527 60.505 111.441 60.7077 110.687L61.7566 106.784H64.719L61.8269 116.209H59.0124L57.9087 111.938C57.706 111.202 57.5034 110.245 57.5034 110.245H57.4668C57.4668 110.245 57.2459 111.202 57.0432 111.938L55.9213 116.209H53.1424L50.2539 106.784Z" fill="white"/>
<path d="M65.4136 103.047H68.4125V107.944H68.4682C69.1492 107.042 69.9581 106.508 71.2644 106.508C73.3258 106.508 74.54 107.981 74.54 110.079V116.209H71.541V110.687C71.541 109.692 71.0444 109.012 70.0685 109.012C69.0753 109.012 68.4125 109.84 68.4125 110.999V116.205H65.4136V103.047Z" fill="white"/>
<path d="M75.46 113.576C75.46 111.496 77.116 110.87 79.0669 110.613C80.8334 110.392 81.4587 110.208 81.4587 109.563C81.4587 108.956 81.0726 108.551 80.1706 108.551C79.2139 108.551 78.7355 108.974 78.6433 109.766H75.8854C75.9593 108.017 77.3022 106.527 80.1542 106.527C81.571 106.527 82.5277 106.784 83.2088 107.299C84.0176 107.888 84.4047 108.809 84.4047 109.987V114.736C84.4047 115.491 84.4777 115.914 84.7352 116.08V116.209H81.8266C81.6796 116.006 81.5874 115.638 81.5135 115.159H81.477C80.9292 115.951 80.0966 116.448 78.6798 116.448C76.8038 116.448 75.46 115.436 75.46 113.576ZM81.5317 112.84V111.717C81.1456 111.92 80.5942 112.067 79.9862 112.215C78.8277 112.472 78.3493 112.763 78.3493 113.484C78.3493 114.239 78.8971 114.534 79.6365 114.534C80.7594 114.534 81.5317 113.852 81.5317 112.84Z" fill="white"/>
<path d="M86.4055 113.722V108.664H85.1548V106.783H86.4055V103.801H89.3268V106.783H91.0376V108.664H89.3314V113.082C89.3314 113.818 89.7358 114.003 90.3794 114.003C90.6377 114.003 90.9317 113.983 91.0422 113.983V116.175C90.7847 116.248 90.2142 116.322 89.4044 116.322C87.6598 116.318 86.4055 115.747 86.4055 113.722Z" fill="white"/>
<path d="M92.1822 107.446C92.8998 107.226 93.4886 106.6 93.4886 105.789H92.2379V103.05H94.9767V105.462C94.9767 106.419 94.6635 107.099 94.1852 107.597C93.6703 108.13 92.9162 108.444 92.1768 108.517L92.1822 107.446Z" fill="white"/>
<path d="M94.2822 113.154H97.1123C97.2218 114.092 97.8481 114.553 98.8413 114.553C99.7433 114.553 100.313 114.221 100.313 113.614C100.313 112.767 99.1727 112.675 97.9211 112.455C96.2842 112.181 94.536 111.737 94.536 109.532C94.536 107.544 96.3755 106.518 98.6021 106.518C101.271 106.518 102.706 107.677 102.853 109.532H100.093C99.9825 108.686 99.4119 108.428 98.5839 108.428C97.8481 108.428 97.2775 108.702 97.2775 109.293C97.2775 109.955 98.3447 110.047 99.5406 110.268C101.197 110.542 103.147 110.968 103.147 113.379C103.147 115.441 101.321 116.509 98.8559 116.509C96.1035 116.504 94.3735 115.234 94.2822 113.154Z" fill="white"/>
<path d="M107.711 106.783H110.583V108.255H110.637C111.3 107.133 112.072 106.636 113.214 106.636C113.487 106.636 113.67 106.654 113.802 106.709V109.287H113.728C111.889 109.029 110.716 109.926 110.716 111.974V116.208H107.716L107.711 106.783Z" fill="white"/>
<path d="M114.762 103.047H117.762V105.477H114.762V103.047ZM114.762 106.784H117.762V116.209H114.762V106.784Z" fill="white"/>
<path d="M118.975 116.428H121.882C122.048 116.924 122.545 117.348 123.538 117.348C124.808 117.348 125.341 116.685 125.341 115.544V114.606H125.268C124.716 115.231 123.998 115.692 122.857 115.692C120.742 115.692 118.772 114.108 118.772 111.216C118.772 108.455 120.392 106.505 122.728 106.505C123.98 106.505 124.828 107.001 125.376 107.792H125.412V106.783H128.287V115.287C128.287 116.704 127.79 117.735 127.036 118.417C126.208 119.153 124.975 119.466 123.576 119.466C120.984 119.466 119.268 118.399 118.975 116.428ZM125.47 111.108C125.47 109.838 124.808 108.77 123.552 108.77C122.431 108.77 121.695 109.69 121.695 111.126C121.695 112.543 122.431 113.464 123.552 113.464C124.862 113.465 125.469 112.434 125.469 111.109L125.47 111.108Z" fill="white"/>
<path d="M129.72 103.047H132.719V107.944H132.773C133.454 107.042 134.264 106.508 135.571 106.508C137.631 106.508 138.846 107.981 138.846 110.079V116.209H135.846V110.687C135.846 109.692 135.35 109.012 134.375 109.012C133.381 109.012 132.719 109.84 132.719 110.999V116.205H129.72V103.047Z" fill="white"/>
<path d="M140.759 113.722V108.664H139.509V106.783H140.759V103.801H143.685V106.783H145.396V108.664H143.685V113.082C143.685 113.818 144.09 114.003 144.734 114.003C144.992 114.003 145.282 113.983 145.396 113.983V116.175C145.139 116.248 144.568 116.322 143.758 116.322C142.011 116.318 140.759 115.747 140.759 113.722Z" fill="white"/>
<path d="M24.7173 129.488H30.3326C33.9761 129.488 36.4236 132.12 36.4236 136.155C36.4236 138.474 35.6138 140.333 34.1413 141.452C33.1106 142.225 31.786 142.649 30.1299 142.649H24.7173V129.488ZM29.888 139.907C32.0224 139.907 33.1261 138.563 33.1261 136.151C33.1261 133.759 31.9667 132.212 29.9245 132.212H27.9746V139.907H29.888Z" fill="#43C4E3"/>
<path d="M37.083 137.961C37.083 135.13 39.1069 132.973 42.1241 132.973C45.1605 132.973 47.1451 135.126 47.1451 137.961C47.1451 140.796 45.1586 142.949 42.1241 142.949C39.1069 142.949 37.083 140.796 37.083 137.961ZM44.1124 137.961C44.1124 136.249 43.4131 135.09 42.104 135.09C40.7949 135.09 40.1166 136.249 40.1166 137.961C40.1166 139.673 40.7995 140.815 42.1104 140.815C43.4214 140.815 44.1115 139.673 44.1115 137.961H44.1124Z" fill="#43C4E3"/>
<path d="M50.2539 133.234H53.3085L54.341 137.132C54.5437 137.887 54.7646 138.959 54.7646 138.959H54.8011C54.8011 138.959 55.0221 137.873 55.2247 137.082L56.2152 133.234H58.755L59.7847 137.082C59.9874 137.891 60.2266 138.978 60.2266 138.978H60.2631C60.2631 138.978 60.5023 137.891 60.7049 137.137L61.7539 133.234H64.7163L61.8269 142.655H59.0124L57.9087 138.384C57.706 137.647 57.5034 136.69 57.5034 136.69H57.4668C57.4668 136.69 57.2459 137.647 57.0432 138.384L55.9213 142.655H53.1424L50.2539 133.234Z" fill="#43C4E3"/>
<path d="M65.4136 129.488H68.4125V134.384H68.4682C69.1492 133.482 69.9581 132.948 71.2644 132.948C73.3258 132.948 74.54 134.421 74.54 136.519V142.65H71.541V137.127C71.541 136.133 71.0444 135.452 70.0685 135.452C69.0753 135.452 68.4125 136.28 68.4125 137.44V142.646H65.4136V129.488Z" fill="#43C4E3"/>
<path d="M75.46 140.022C75.46 137.943 77.116 137.317 79.0669 137.06C80.8334 136.839 81.4587 136.654 81.4587 136.01C81.4587 135.403 81.0726 134.997 80.1706 134.997C79.2139 134.997 78.7355 135.421 78.6433 136.212H75.8854C75.9593 134.464 77.3022 132.973 80.1542 132.973C81.571 132.973 82.5277 133.23 83.2088 133.746C84.0176 134.335 84.4047 135.255 84.4047 136.433V141.182C84.4047 141.938 84.4777 142.36 84.7352 142.526V142.655H81.8266C81.6796 142.453 81.5874 142.085 81.5135 141.606H81.477C80.9292 142.397 80.0966 142.895 78.6798 142.895C76.8038 142.895 75.46 141.882 75.46 140.022ZM81.5317 139.286V138.166C81.1456 138.368 80.5942 138.516 79.9862 138.663C78.8277 138.921 78.3493 139.211 78.3493 139.934C78.3493 140.688 78.8971 140.983 79.6365 140.983C80.7594 140.98 81.5317 140.299 81.5317 139.286Z" fill="#43C4E3"/>
<path d="M86.4055 140.169V135.107H85.1548V133.233H86.4055V130.247H89.3268V133.233H91.0376V135.111H89.3314V139.529C89.3314 140.265 89.7358 140.449 90.3794 140.449C90.6377 140.449 90.9317 140.431 91.0422 140.431V142.623C90.7847 142.697 90.2142 142.771 89.4044 142.771C87.6598 142.765 86.4055 142.194 86.4055 140.169Z" fill="#43C4E3"/>
<path d="M92.1822 133.893C92.8998 133.672 93.4886 133.046 93.4886 132.236H92.2379V129.496H94.9767V131.907C94.9767 132.864 94.6635 133.546 94.1852 134.043C93.6703 134.577 92.9162 134.889 92.1768 134.963L92.1822 133.893Z" fill="#43C4E3"/>
<path d="M94.2822 139.598H97.1123C97.2218 140.537 97.8481 140.997 98.8413 140.997C99.7433 140.997 100.313 140.665 100.313 140.058C100.313 139.211 99.1727 139.119 97.9211 138.898C96.2842 138.624 94.536 138.18 94.536 135.976C94.536 133.988 96.3755 132.962 98.6021 132.962C101.271 132.962 102.706 134.122 102.853 135.976H100.093C99.9825 135.129 99.4119 134.871 98.5839 134.871C97.8481 134.871 97.2775 135.145 97.2775 135.736C97.2775 136.399 98.3447 136.492 99.5406 136.713C101.197 136.987 103.147 137.411 103.147 139.823C103.147 141.885 101.321 142.952 98.8559 142.952C96.1035 142.948 94.3735 141.677 94.2822 139.598Z" fill="#43C4E3"/>
<path d="M107.711 133.233H110.583V134.706H110.637C111.3 133.583 112.072 133.086 113.214 133.086C113.487 133.086 113.67 133.104 113.802 133.16V135.736H113.728C111.889 135.479 110.716 136.381 110.716 138.424V142.658H107.716L107.711 133.233Z" fill="#43C4E3"/>
<path d="M114.762 129.488H117.762V131.917H114.762V129.488ZM114.762 133.224H117.762V142.65H114.762V133.224Z" fill="#43C4E3"/>
<path d="M118.975 142.874H121.882C122.048 143.372 122.545 143.795 123.538 143.795C124.808 143.795 125.341 143.133 125.341 141.991V141.052H125.268C124.716 141.678 123.998 142.138 122.857 142.138C120.742 142.138 118.772 140.556 118.772 137.663C118.772 134.901 120.392 132.95 122.728 132.95C123.98 132.95 124.828 133.447 125.376 134.239H125.412V133.234H128.287V141.738C128.287 143.156 127.79 144.186 127.036 144.867C126.208 145.603 124.975 145.917 123.576 145.917C120.984 145.912 119.268 144.844 118.975 142.874ZM125.47 137.555C125.47 136.285 124.808 135.217 123.552 135.217C122.431 135.217 121.695 136.138 121.695 137.574C121.695 138.991 122.431 139.912 123.552 139.912C124.862 139.912 125.469 138.881 125.469 137.555H125.47Z" fill="#43C4E3"/>
<path d="M129.72 129.488H132.719V134.384H132.773C133.454 133.482 134.264 132.948 135.571 132.948C137.631 132.948 138.846 134.421 138.846 136.519V142.65H135.846V137.127C135.846 136.133 135.35 135.452 134.375 135.452C133.381 135.452 132.719 136.28 132.719 137.44V142.646H129.72V129.488Z" fill="#43C4E3"/>
<path d="M140.759 140.169V135.107H139.509V133.233H140.759V130.247H143.685V133.233H145.396V135.111H143.685V139.529C143.685 140.265 144.09 140.449 144.734 140.449C144.992 140.449 145.282 140.431 145.396 140.431V142.623C145.139 142.697 144.568 142.771 143.758 142.771C142.011 142.765 140.759 142.194 140.759 140.169Z" fill="#43C4E3"/>
</svg>
