<svg width="170" height="170" viewBox="0 0 170 170" fill="none" xmlns="http://www.w3.org/2000/svg">
<path d="M133.237 66.3638C133.237 66.5465 133.229 66.725 133.216 66.9035C132.515 76.3215 111.21 80.6353 98.974 73.9713L85 66.3638L98.974 58.7563C111.214 52.0923 132.515 56.406 133.216 65.824C133.229 66.0025 133.237 66.1853 133.237 66.3638Z" fill="#90BA5F"/>
<path d="M36.7627 66.3638C36.7627 66.181 36.7712 66.0025 36.7839 65.824C37.4852 56.406 58.7904 52.0923 71.0262 58.7563L85.0002 66.3638L71.0262 73.9713C58.7862 80.6353 37.4852 76.3215 36.7839 66.9035C36.7712 66.725 36.7627 66.5423 36.7627 66.3638Z" fill="#90BA5F"/>
<path d="M119.952 44.064C119.952 44.1957 119.948 44.3275 119.939 44.455C119.429 51.2762 103.993 54.4042 95.1278 49.5762L85 44.064L95.1278 38.5517C103.998 33.7237 119.433 36.8517 119.939 43.673C119.948 43.8047 119.952 43.9322 119.952 44.064Z" fill="#90BA5F"/>
<path d="M50.0483 44.064C50.0483 43.9322 50.0526 43.8005 50.0611 43.673C50.5711 36.8517 66.0071 33.7237 74.8726 38.5517L85.0003 44.064L74.8726 49.5762C66.0028 54.4042 50.5668 51.2762 50.0611 44.455C50.0526 44.3232 50.0483 44.1957 50.0483 44.064Z" fill="#90BA5F"/>
<path d="M85.0004 116.476C87.1904 116.476 88.9657 95.1585 88.9657 68.8628C88.9657 42.567 87.1904 21.25 85.0004 21.25C82.8105 21.25 81.0352 42.567 81.0352 68.8628C81.0352 95.1585 82.8105 116.476 85.0004 116.476Z" fill="#90BA5F"/>
<path d="M133.238 92.7223H36.7627V148.75H133.238V92.7223Z" fill="#82CDE5"/>
<path d="M85.0002 101.52H36.7627V107.223H85.0002V101.52Z" fill="#EDF3F3"/>
<path d="M133.237 92.7223H85V148.75H133.237V92.7223Z" fill="#5CA9C4"/>
<path d="M133.237 101.52H85V107.223H133.237V101.52Z" fill="#CBD8DE"/>
</svg>
