<svg width="170" height="170" viewBox="0 0 170 170" fill="none" xmlns="http://www.w3.org/2000/svg">
<path d="M161.5 17.85H109.102V141.257H161.5V17.85Z" fill="#349558"/>
<path d="M156.769 22.5803H113.836V136.531H156.769V22.5803Z" stroke="#92BC60" stroke-width="8.29" stroke-miterlimit="10"/>
<path d="M135.417 94.6603C143.832 94.6603 150.654 87.8445 150.654 79.4368C150.654 71.0291 143.832 64.2133 135.417 64.2133C127.003 64.2133 120.181 71.0291 120.181 79.4368C120.181 87.8445 127.003 94.6603 135.417 94.6603Z" fill="#92BC60"/>
<path d="M125.426 78.8587C125.727 74.0052 128.158 71.3277 131.911 71.1917V75.6882C130.173 75.9092 129.098 76.9292 128.847 78.8587H133.926C133.926 78.8035 133.926 78.778 133.955 78.7482C134.95 74.8595 135.804 71.7952 139.888 71.7952C143.42 71.7952 145.354 74.8552 145.52 78.8587H147.7V80.6225H145.49C145.188 84.6515 143.169 87.1335 139.748 87.3545V83.1087C141.019 82.9175 141.873 82.059 142.149 80.6267H137.513L137.428 80.9837C136.488 84.8172 135.358 87.7965 131.439 87.7965C127.687 87.7965 125.617 84.7067 125.421 80.6267H122.191V78.863H125.421L125.426 78.8587ZM137.959 78.8587H142.239C142.073 77.2055 141.244 76.2662 140.114 76.2662C138.983 76.2662 138.486 77.0397 137.959 78.8587ZM133.458 80.6225H128.847C129.038 82.0845 129.812 83.3 131.167 83.3C132.438 83.3 132.935 82.3905 133.458 80.6225Z" fill="#349558"/>
<path d="M153.098 29.2567L100.918 24.4713L89.6479 147.363L141.827 152.148L153.098 29.2567Z" fill="#349558"/>
<path d="M147.951 33.5305L105.197 29.6095L94.7904 143.084L137.544 147.005L147.951 33.5305Z" stroke="#92BC60" stroke-width="6.91" stroke-miterlimit="10"/>
<path d="M121.495 103.432C129.909 103.432 136.731 96.6165 136.731 88.2088C136.731 79.8011 129.909 72.9853 121.495 72.9853C113.08 72.9853 106.258 79.8011 106.258 88.2088C106.258 96.6165 113.08 103.432 121.495 103.432Z" fill="#92BC60"/>
<path d="M111.6 86.717C112.348 81.9103 115.009 79.4665 118.762 79.6748L118.349 84.15C116.598 84.2095 115.434 85.1275 115.009 87.0273L120.066 87.4905C120.071 87.4353 120.075 87.4098 120.105 87.3843C121.452 83.6018 122.582 80.631 126.65 81.005C130.169 81.328 131.813 84.5538 131.609 88.553L133.781 88.7528L133.62 90.5123L131.422 90.3125C130.751 94.2948 128.52 96.5813 125.09 96.492L125.477 92.2633C126.76 92.1868 127.691 91.4133 128.095 90.0108L123.475 89.5858L123.36 89.9343C122.077 93.6658 120.674 96.5303 116.773 96.1733C113.033 95.829 111.256 92.565 111.435 88.4808L108.217 88.1875L108.379 86.428L111.596 86.7213L111.6 86.717ZM124.078 87.8603L128.337 88.2513C128.324 86.5895 127.585 85.578 126.458 85.476C125.332 85.374 124.767 86.0965 124.078 87.8603ZM119.437 89.2075L114.847 88.7868C114.907 90.2615 115.566 91.5408 116.913 91.664C118.179 91.7788 118.757 90.9203 119.437 89.2075Z" fill="#349558"/>
<path d="M72.5174 94.1375H25.5464V141.079H72.5174V94.1375Z" fill="#D6D765"/>
<path d="M56.3848 124.882L10.1108 112.88L13.4301 98.906L67.9661 79.39L56.3848 124.882Z" fill="#90BA5F"/>
<path d="M65.6048 77.449L20.0811 65.879L8.51837 111.374L54.0421 122.944L65.6048 77.449Z" fill="#D6D765"/>
<path opacity="0.2" d="M65.6092 77.4504L20.0854 65.8804L17.7352 75.1276L63.259 86.6976L65.6092 77.4504Z" fill="#90BA5F"/>
<path d="M119.28 119.06L58.7474 127.492C57.2939 127.695 55.9509 126.68 55.7469 125.226L48.6919 74.6597L45.4406 51.3272C45.2366 49.8737 46.2524 48.5307 47.7059 48.3267L108.239 39.8947C109.692 39.6907 111.035 40.7065 111.239 42.16L121.545 116.059C121.749 117.512 120.734 118.855 119.28 119.06Z" fill="#4B6271" stroke="#4B6271" stroke-width="1.38" stroke-miterlimit="10"/>
<path d="M63.2342 84.7128L58.5158 85.3726C57.6371 85.4954 57.0244 86.3074 57.1473 87.1861L57.614 90.5238C57.7369 91.4025 58.5488 92.0153 59.4275 91.8924L64.1458 91.2326C65.0245 91.1098 65.6372 90.2978 65.5144 89.4191L65.0477 86.0814C64.9248 85.2027 64.1129 84.5899 63.2342 84.7128Z" fill="#EDB31E"/>
<path d="M74.4275 83.1479L69.7092 83.8077C68.8305 83.9305 68.2178 84.7424 68.3406 85.6211L68.8074 88.9589C68.9302 89.8376 69.7421 90.4503 70.6208 90.3275L75.3392 89.6677C76.2179 89.5448 76.8306 88.7329 76.7077 87.8542L76.241 84.5164C76.1182 83.6377 75.3062 83.025 74.4275 83.1479Z" fill="#CBD8DE"/>
<path d="M85.616 81.5836L80.8977 82.2433C80.019 82.3662 79.4062 83.1781 79.5291 84.0568L79.9958 87.3946C80.1187 88.2733 80.9306 88.886 81.8093 88.7631L86.5277 88.1034C87.4064 87.9805 88.0191 87.1686 87.8962 86.2899L87.4295 82.9521C87.3066 82.0734 86.4947 81.4607 85.616 81.5836Z" fill="#CBD8DE"/>
<path d="M96.8128 80.0144L92.0944 80.6742C91.2157 80.7971 90.603 81.609 90.7259 82.4877L91.1926 85.8255C91.3155 86.7042 92.1274 87.3169 93.0061 87.194L97.7244 86.5343C98.6031 86.4114 99.2159 85.5995 99.093 84.7208L98.6263 81.383C98.5034 80.5043 97.6915 79.8916 96.8128 80.0144Z" fill="#CBD8DE"/>
<path d="M108.002 78.4501L103.283 79.1099C102.405 79.2327 101.792 80.0447 101.915 80.9234L102.382 84.2611C102.504 85.1398 103.316 85.7526 104.195 85.6297L108.913 84.9699C109.792 84.8471 110.405 84.0351 110.282 83.1564L109.815 79.8187C109.692 78.94 108.88 78.3272 108.002 78.4501Z" fill="#CBD8DE"/>
<path d="M64.5257 93.9437L59.8073 94.6035C58.9286 94.7263 58.3159 95.5383 58.4388 96.4169L58.9055 99.7547C59.0284 100.633 59.8403 101.246 60.719 101.123L65.4373 100.464C66.316 100.341 66.9288 99.5287 66.8059 98.65L66.3392 95.3122C66.2163 94.4335 65.4044 93.8208 64.5257 93.9437Z" fill="#CBD8DE"/>
<path d="M75.7185 92.3788L71.0002 93.0385C70.1215 93.1614 69.5088 93.9733 69.6317 94.852L70.0984 98.1898C70.2212 99.0685 71.0332 99.6812 71.9119 99.5584L76.6302 98.8986C77.5089 98.7757 78.1216 97.9638 77.9988 97.0851L77.532 93.7473C77.4092 92.8686 76.5972 92.2559 75.7185 92.3788Z" fill="#CBD8DE"/>
<path d="M86.9119 90.8145L82.1936 91.4742C81.3149 91.5971 80.7021 92.409 80.825 93.2877L81.2917 96.6255C81.4146 97.5042 82.2265 98.1169 83.1052 97.994L87.8236 97.3343C88.7023 97.2114 89.315 96.3995 89.1921 95.5208L88.7254 92.183C88.6025 91.3043 87.7906 90.6916 86.9119 90.8145Z" fill="#CBD8DE"/>
<path d="M98.1048 89.2495L93.3864 89.9093C92.5077 90.0321 91.895 90.8441 92.0179 91.7228L92.4846 95.0605C92.6075 95.9392 93.4194 96.552 94.2981 96.4291L99.0164 95.7693C99.8951 95.6465 100.508 94.8345 100.385 93.9558L99.9183 90.6181C99.7954 89.7394 98.9835 89.1266 98.1048 89.2495Z" fill="#CBD8DE"/>
<path d="M109.294 87.6852L104.575 88.345C103.697 88.4678 103.084 89.2798 103.207 90.1585L103.674 93.4962C103.796 94.3749 104.608 94.9877 105.487 94.8648L110.205 94.205C111.084 94.0822 111.697 93.2702 111.574 92.3915L111.107 89.0538C110.984 88.1751 110.172 87.5623 109.294 87.6852Z" fill="#CBD8DE"/>
<path d="M110.58 96.9298L105.867 97.5885C104.992 97.7118 104.375 98.5278 104.499 99.4033L104.898 102.268L105.021 103.135L106.258 111.971C106.381 112.846 107.197 113.462 108.073 113.339L112.786 112.68C113.662 112.557 114.278 111.741 114.155 110.866L112.918 102.026L112.795 101.159L112.395 98.294C112.272 97.4185 111.456 96.8023 110.58 96.9255V96.9298Z" fill="#CBD8DE"/>
<path d="M65.8177 103.179L61.0993 103.839C60.2206 103.961 59.6079 104.773 59.7308 105.652L60.1975 108.99C60.3204 109.869 61.1323 110.481 62.011 110.358L66.7293 109.699C67.608 109.576 68.2207 108.764 68.0979 107.885L67.6312 104.547C67.5083 103.669 66.6964 103.056 65.8177 103.179Z" fill="#CBD8DE"/>
<path d="M77.0105 101.614L72.2922 102.274C71.4135 102.396 70.8008 103.208 70.9236 104.087L71.3904 107.425C71.5132 108.304 72.3252 108.916 73.2039 108.793L77.9222 108.134C78.8009 108.011 79.4136 107.199 79.2908 106.32L78.824 102.982C78.7012 102.104 77.8892 101.491 77.0105 101.614Z" fill="#CBD8DE"/>
<path d="M88.2039 100.05L83.4856 100.709C82.6069 100.832 81.9941 101.644 82.117 102.523L82.5837 105.861C82.7066 106.739 83.5185 107.352 84.3972 107.229L89.1156 106.569C89.9943 106.446 90.607 105.635 90.4841 104.756L90.0174 101.418C89.8945 100.539 89.0826 99.9267 88.2039 100.05Z" fill="#CBD8DE"/>
<path d="M99.3968 98.4846L94.6784 99.1444C93.7997 99.2672 93.187 100.079 93.3099 100.958L93.7766 104.296C93.8995 105.174 94.7114 105.787 95.5901 105.664L100.308 105.004C101.187 104.882 101.8 104.07 101.677 103.191L101.21 99.8532C101.087 98.9745 100.275 98.3618 99.3968 98.4846Z" fill="#CBD8DE"/>
<path d="M67.1141 112.413L62.3957 113.073C61.517 113.196 60.9043 114.008 61.0272 114.887L61.4939 118.224C61.6167 119.103 62.4287 119.716 63.3074 119.593L68.0257 118.933C68.9044 118.81 69.5171 117.998 69.3943 117.12L68.9275 113.782C68.8047 112.903 67.9928 112.29 67.1141 112.413Z" fill="#CBD8DE"/>
<path d="M78.3069 110.849L73.5886 111.509C72.7099 111.632 72.0972 112.444 72.22 113.322L72.6867 116.66C72.8096 117.539 73.6215 118.151 74.5002 118.029L79.2186 117.369C80.0973 117.246 80.71 116.434 80.5871 115.555L80.1204 112.218C79.9976 111.339 79.1856 110.726 78.3069 110.849Z" fill="#CBD8DE"/>
<path d="M89.4998 109.284L84.7815 109.944C83.9028 110.067 83.29 110.879 83.4129 111.757L83.8796 115.095C84.0025 115.974 84.8144 116.586 85.6931 116.464L90.4115 115.804C91.2902 115.681 91.9029 114.869 91.78 113.99L91.3133 110.653C91.1904 109.774 90.3785 109.161 89.4998 109.284Z" fill="#CBD8DE"/>
<path d="M100.689 107.72L95.9704 108.379C95.0917 108.502 94.479 109.314 94.6019 110.193L95.0686 113.531C95.1915 114.409 96.0034 115.022 96.8821 114.899L101.6 114.24C102.479 114.117 103.092 113.305 102.969 112.426L102.502 109.088C102.379 108.21 101.567 107.597 100.689 107.72Z" fill="#CBD8DE"/>
<path d="M106.907 66.3793L56.2268 73.4389C55.6782 73.5153 55.2954 74.022 55.3718 74.5707L55.7529 77.3068C55.8293 77.8554 56.336 78.2382 56.8847 78.1618L107.565 71.1022C108.114 71.0258 108.497 70.5191 108.42 69.9704L108.039 67.2344C107.963 66.6857 107.456 66.3029 106.907 66.3793Z" fill="#93736A"/>
<path d="M106.222 54.3391L53.5962 61.6696C53.5846 61.6712 53.5765 61.6819 53.5781 61.6936L55.7652 77.3945C55.7668 77.4061 55.7775 77.4142 55.7892 77.4126L108.415 70.0821C108.426 70.0805 108.434 70.0698 108.433 70.0581L106.246 54.3572C106.244 54.3456 106.233 54.3375 106.222 54.3391Z" fill="#BA9F93"/>
<path d="M77.322 50.9037L52.6846 54.3356C52.5497 54.3543 52.4557 54.4789 52.4744 54.6137L53.0479 58.7305C53.0667 58.8653 53.1912 58.9594 53.326 58.9406L77.9634 55.5087C78.0982 55.4899 78.1923 55.3654 78.1735 55.2306L77.6001 51.1138C77.5813 50.979 77.4568 50.8849 77.322 50.9037Z" fill="#252E33"/>
<path d="M65.2553 52.5888L64.7544 52.6585L65.3951 57.2636L65.896 57.1939L65.2553 52.5888Z" fill="#4B6271"/>
<path d="M58.3803 53.5442L57.8794 53.6139L58.5201 58.219L59.021 58.1494L58.3803 53.5442Z" fill="#4B6271"/>
<path d="M72.1293 51.6292L71.6284 51.6989L72.2691 56.304L72.77 56.2343L72.1293 51.6292Z" fill="#4B6271"/>
<path d="M26.6303 84.303C26.1416 84.1925 25.6231 84.2052 25.1386 84.3455L26.7536 86.3345C26.8811 86.4875 27.0086 86.7 26.9066 86.87C26.8428 86.9805 26.7068 87.0187 26.5793 87.0442C25.8186 87.1845 24.9941 86.9635 24.4033 86.462" stroke="#113B5E" stroke-width="0.69" stroke-linecap="round" stroke-linejoin="round"/>
<path d="M26.2646 82.042C25.9204 84.4305 25.4614 86.8062 24.9004 89.1565" stroke="#113B5E" stroke-width="0.69" stroke-linecap="round" stroke-linejoin="round"/>
<path d="M33.0437 87.4692C32.0789 87.2652 31.0887 87.2015 30.1069 87.2822L31.9939 85.731C31.9387 86.785 31.6327 87.788 31.3692 88.8122" stroke="#113B5E" stroke-width="0.69" stroke-linecap="round" stroke-linejoin="round"/>
<path d="M34.0807 89.335C33.9362 89.879 33.6302 90.3805 33.2095 90.7587" stroke="#113B5E" stroke-width="0.69" stroke-linecap="round" stroke-linejoin="round"/>
<path d="M39.4991 87.6647C39.0316 88.2767 38.6406 88.9482 38.3473 89.658C38.1943 90.0235 38.1391 90.5632 38.5088 90.7035C38.6533 90.7587 38.8148 90.7205 38.9593 90.6695C39.4948 90.4867 39.9878 90.083 40.1238 89.5347C40.2641 88.9865 39.9283 88.3192 39.3716 88.23" stroke="#113B5E" stroke-width="0.69" stroke-linecap="round" stroke-linejoin="round"/>
<path d="M43.1201 88.6805C42.4316 88.7315 41.7898 89.216 41.5603 89.8662C41.4371 90.2147 41.4286 90.6227 41.6283 90.933C41.8281 91.2432 42.2616 91.4132 42.5888 91.239C42.8948 91.0775 43.1541 90.508 43.2221 90.202C43.3113 89.8067 43.2943 89.1352 42.4783 88.8632" stroke="#113B5E" stroke-width="0.69" stroke-linecap="round" stroke-linejoin="round"/>
<path d="M23.9784 94.2013C23.5874 94.0865 23.1539 94.1035 22.7714 94.248C23.4599 94.8983 23.9954 95.7015 24.3354 96.5855C23.7362 96.8065 23.0264 96.6918 22.5249 96.2965" stroke="#113B5E" stroke-width="0.69" stroke-linecap="round" stroke-linejoin="round"/>
<path d="M23.8081 92.3992C23.6721 94.1672 23.4809 95.931 23.2344 97.6862" stroke="#113B5E" stroke-width="0.69" stroke-linecap="round" stroke-linejoin="round"/>
<path d="M28.5298 95.5952C29.0398 95.421 29.571 95.3105 30.1108 95.2722C30.4168 96.4792 29.486 97.614 28.6233 98.515L30.4678 98.7402" stroke="#113B5E" stroke-width="0.69" stroke-linecap="round" stroke-linejoin="round"/>
<path d="M32.168 98.8932C32.338 99.5817 32.0745 100.359 31.522 100.806" stroke="#113B5E" stroke-width="0.69" stroke-linecap="round" stroke-linejoin="round"/>
<path d="M34.5653 96.9043L36.0315 96.8788C35.6873 97.7628 35.1305 98.566 34.4165 99.1993L35.7255 99.399" stroke="#113B5E" stroke-width="0.69" stroke-linecap="round" stroke-linejoin="round"/>
<path d="M40.1154 98.0263L37.7949 97.5885C37.4804 97.75 37.7099 98.2558 38.0329 98.4003C38.3559 98.5448 38.7682 98.583 38.9509 98.8848C39.1932 99.2928 38.7384 99.824 38.2667 99.8453C37.7949 99.8665 37.3742 99.5733 36.9917 99.2885" stroke="#113B5E" stroke-width="0.69" stroke-linecap="round" stroke-linejoin="round"/>
<path d="M41.127 98.8253C41.6157 98.8338 42.1045 98.9315 42.5592 99.1185C42.3467 99.586 41.7347 99.8283 41.2587 99.6243C41.7007 99.6965 42.0747 100.088 42.1215 100.534C41.4117 100.445 40.7062 100.292 40.022 100.083" stroke="#113B5E" stroke-width="0.69" stroke-linecap="round" stroke-linejoin="round"/>
<path d="M22.0403 103.437C21.1605 103.364 20.268 103.432 19.4053 103.632C20.319 103.976 21.1818 104.461 21.951 105.064C21.3688 105.642 20.3615 105.719 19.6985 105.239" stroke="#113B5E" stroke-width="0.69" stroke-linecap="round" stroke-linejoin="round"/>
<path d="M20.8713 102.242C20.918 103.84 20.697 105.442 20.2168 106.964" stroke="#113B5E" stroke-width="0.69" stroke-linecap="round" stroke-linejoin="round"/>
<path d="M27.5992 103.874L27.0127 107.385" stroke="#113B5E" stroke-width="0.69" stroke-linecap="round" stroke-linejoin="round"/>
<path d="M36.9024 86.9167L36.3159 90.4273" stroke="#113B5E" stroke-width="0.69" stroke-linecap="round" stroke-linejoin="round"/>
<path d="M29.1803 107.245C29.2355 108.01 28.9763 108.792 28.479 109.374" stroke="#113B5E" stroke-width="0.69" stroke-linecap="round" stroke-linejoin="round"/>
<path d="M33.0777 105.285C32.4614 105.277 31.8494 105.196 31.2544 105.039L31.3012 106.14C31.6752 106.152 32.0662 106.169 32.3849 106.356C32.7079 106.548 32.9204 106.968 32.7547 107.3C32.4954 107.81 31.7304 107.64 31.2119 107.398L31.3777 107.347" stroke="#113B5E" stroke-width="0.69" stroke-linecap="round" stroke-linejoin="round"/>
<path d="M36.0825 105.842C35.6787 105.842 35.2962 105.625 34.8925 105.651C34.4887 105.676 34.1105 106.207 34.4207 106.462C34.9477 106.22 35.6405 106.777 35.5215 107.346C35.4025 107.916 34.544 108.141 34.1572 107.708" stroke="#113B5E" stroke-width="0.69" stroke-linecap="round" stroke-linejoin="round"/>
<path d="M38.373 106.348L38.0202 106.152C37.8545 106.386 37.6887 106.632 37.6462 106.913C37.6037 107.198 37.7312 107.525 38.0032 107.618C38.288 107.716 38.6025 107.504 38.73 107.232C38.8575 106.96 38.8405 106.645 38.8235 106.343L38.3007 110.096" stroke="#113B5E" stroke-width="0.69" stroke-linecap="round" stroke-linejoin="round"/>
</svg>
